{
    "asset" : {
        "generator" : "Khronos glTF Blender I/O v3.2.40",
        "version" : "2.0"
    },
    "scene" : 0,
    "scenes" : [
        {
            "name" : "Scene",
            "nodes" : [
                1
            ]
        }
    ],
    "nodes" : [
        {
            "mesh" : 0,
            "name" : "Cylinder.001",
            "rotation" : [
                0.7071068286895752,
                0,
                -0.7071068286895752,
                2.669252907594455e-08
            ],
            "scale" : [
                0.887312650680542,
                0.2274583876132965,
                0.887312650680542
            ],
            "translation" : [
                -0.044848110526800156,
                -3.1442134380340576,
                -0.04170704260468483
            ]
        },
        {
            "children" : [
                0
            ],
            "mesh" : 1,
            "name" : "Cylinder",
            "rotation" : [
                0,
                0,
                0.7071068286895752,
                0.7071068286895752
            ]
        }
    ],
    "animations" : [
        {
            "channels" : [
                {
                    "sampler" : 0,
                    "target" : {
                        "node" : 1,
                        "path" : "translation"
                    }
                },
                {
                    "sampler" : 1,
                    "target" : {
                        "node" : 1,
                        "path" : "rotation"
                    }
                }
            ],
            "name" : "CylinderAction.002",
            "samplers" : [
                {
                    "input" : 32,
                    "interpolation" : "LINEAR",
                    "output" : 33
                },
                {
                    "input" : 32,
                    "interpolation" : "LINEAR",
                    "output" : 34
                }
            ]
        },
        {
            "channels" : [
                {
                    "sampler" : 0,
                    "target" : {
                        "node" : 0,
                        "path" : "rotation"
                    }
                }
            ],
            "name" : "Cylinder.001Action.003",
            "samplers" : [
                {
                    "input" : 32,
                    "interpolation" : "LINEAR",
                    "output" : 35
                }
            ]
        }
    ],
    "materials" : [
        {
            "doubleSided" : true,
            "name" : "lightgray",
            "pbrMetallicRoughness" : {
                "baseColorFactor" : [
                    0.3931123912334442,
                    0.3931123912334442,
                    0.3931123912334442,
                    1
                ],
                "metallicFactor" : 0,
                "roughnessFactor" : 0.5
            }
        },
        {
            "doubleSided" : true,
            "name" : "yellow",
            "pbrMetallicRoughness" : {
                "baseColorFactor" : [
                    0.8000000715255737,
                    0.6864939332008362,
                    0.0034960047341883183,
                    1
                ],
                "metallicFactor" : 0,
                "roughnessFactor" : 0.5
            }
        },
        {
            "doubleSided" : true,
            "name" : "red",
            "pbrMetallicRoughness" : {
                "baseColorFactor" : [
                    0.8000000715255737,
                    0.03482357785105705,
                    0.03482357785105705,
                    1
                ],
                "metallicFactor" : 0,
                "roughnessFactor" : 0.5
            }
        },
        {
            "doubleSided" : true,
            "name" : "blue",
            "pbrMetallicRoughness" : {
                "baseColorFactor" : [
                    0.026099417358636856,
                    0.06601608544588089,
                    0.8000000715255737,
                    1
                ],
                "metallicFactor" : 0,
                "roughnessFactor" : 0.5
            }
        },
        {
            "doubleSided" : true,
            "name" : "yellow.002",
            "pbrMetallicRoughness" : {
                "baseColorFactor" : [
                    0.8000000715255737,
                    0.6934653520584106,
                    0.021700751036405563,
                    1
                ],
                "metallicFactor" : 0,
                "roughnessFactor" : 0.5
            }
        },
        {
            "doubleSided" : true,
            "name" : "gray",
            "pbrMetallicRoughness" : {
                "baseColorFactor" : [
                    0.09850311279296875,
                    0.09252548217773438,
                    0.09514487534761429,
                    1
                ],
                "metallicFactor" : 0,
                "roughnessFactor" : 0.5
            }
        },
        {
            "doubleSided" : true,
            "name" : "white",
            "pbrMetallicRoughness" : {
                "baseColorFactor" : [
                    0.800000011920929,
                    0.800000011920929,
                    0.800000011920929,
                    1
                ],
                "metallicFactor" : 0,
                "roughnessFactor" : 0.5
            }
        }
    ],
    "meshes" : [
        {
            "name" : "Cylinder.002",
            "primitives" : [
                {
                    "attributes" : {
                        "POSITION" : 0,
                        "NORMAL" : 1,
                        "TEXCOORD_0" : 2
                    },
                    "indices" : 3,
                    "material" : 0
                },
                {
                    "attributes" : {
                        "POSITION" : 4,
                        "NORMAL" : 5,
                        "TEXCOORD_0" : 6
                    },
                    "indices" : 7,
                    "material" : 1
                },
                {
                    "attributes" : {
                        "POSITION" : 8,
                        "NORMAL" : 9,
                        "TEXCOORD_0" : 10
                    },
                    "indices" : 11,
                    "material" : 2
                }
            ]
        },
        {
            "name" : "Cylinder.001",
            "primitives" : [
                {
                    "attributes" : {
                        "POSITION" : 12,
                        "NORMAL" : 13,
                        "TEXCOORD_0" : 14
                    },
                    "indices" : 15,
                    "material" : 3
                },
                {
                    "attributes" : {
                        "POSITION" : 16,
                        "NORMAL" : 17,
                        "TEXCOORD_0" : 18
                    },
                    "indices" : 19,
                    "material" : 4
                },
                {
                    "attributes" : {
                        "POSITION" : 20,
                        "NORMAL" : 21,
                        "TEXCOORD_0" : 22
                    },
                    "indices" : 23,
                    "material" : 2
                },
                {
                    "attributes" : {
                        "POSITION" : 24,
                        "NORMAL" : 25,
                        "TEXCOORD_0" : 26
                    },
                    "indices" : 27,
                    "material" : 5
                },
                {
                    "attributes" : {
                        "POSITION" : 28,
                        "NORMAL" : 29,
                        "TEXCOORD_0" : 30
                    },
                    "indices" : 31,
                    "material" : 6
                }
            ]
        }
    ],
    "accessors" : [
        {
            "bufferView" : 0,
            "componentType" : 5126,
            "count" : 284,
            "max" : [
                1.040036916732788,
                0.8029760122299194,
                3.296116352081299
            ],
            "min" : [
                -0.9599630832672119,
                -2.9399328231811523,
                -3.9162585735321045
            ],
            "type" : "VEC3"
        },
        {
            "bufferView" : 1,
            "componentType" : 5126,
            "count" : 284,
            "type" : "VEC3"
        },
        {
            "bufferView" : 2,
            "componentType" : 5126,
            "count" : 284,
            "type" : "VEC2"
        },
        {
            "bufferView" : 3,
            "componentType" : 5123,
            "count" : 528,
            "type" : "SCALAR"
        },
        {
            "bufferView" : 4,
            "componentType" : 5126,
            "count" : 60,
            "max" : [
                0.6389790773391724,
                0.7854117155075073,
                4.428083896636963
            ],
            "min" : [
                -0.44480347633361816,
                -0.9519600868225098,
                -4.400754451751709
            ],
            "type" : "VEC3"
        },
        {
            "bufferView" : 5,
            "componentType" : 5126,
            "count" : 60,
            "type" : "VEC3"
        },
        {
            "bufferView" : 6,
            "componentType" : 5126,
            "count" : 60,
            "type" : "VEC2"
        },
        {
            "bufferView" : 7,
            "componentType" : 5123,
            "count" : 90,
            "type" : "SCALAR"
        },
        {
            "bufferView" : 8,
            "componentType" : 5126,
            "count" : 72,
            "max" : [
                0.9666972756385803,
                3.8841004371643066,
                0.9828838109970093
            ],
            "min" : [
                -0.8866234421730042,
                0.8029760122299194,
                -0.8704369068145752
            ],
            "type" : "VEC3"
        },
        {
            "bufferView" : 9,
            "componentType" : 5126,
            "count" : 72,
            "type" : "VEC3"
        },
        {
            "bufferView" : 10,
            "componentType" : 5126,
            "count" : 72,
            "type" : "VEC2"
        },
        {
            "bufferView" : 11,
            "componentType" : 5123,
            "count" : 114,
            "type" : "SCALAR"
        },
        {
            "bufferView" : 12,
            "componentType" : 5126,
            "count" : 608,
            "max" : [
                1.7730188369750977,
                2.655472755432129,
                3.4588592052459717
            ],
            "min" : [
                -1.179134488105774,
                -2.5,
                -3.4588592052459717
            ],
            "type" : "VEC3"
        },
        {
            "bufferView" : 13,
            "componentType" : 5126,
            "count" : 608,
            "type" : "VEC3"
        },
        {
            "bufferView" : 14,
            "componentType" : 5126,
            "count" : 608,
            "type" : "VEC2"
        },
        {
            "bufferView" : 15,
            "componentType" : 5123,
            "count" : 954,
            "type" : "SCALAR"
        },
        {
            "bufferView" : 16,
            "componentType" : 5126,
            "count" : 200,
            "max" : [
                1.978377342224121,
                2.6787519454956055,
                4.24267053604126
            ],
            "min" : [
                -0.17281270027160645,
                -1.5218449831008911,
                -4.24267053604126
            ],
            "type" : "VEC3"
        },
        {
            "bufferView" : 17,
            "componentType" : 5126,
            "count" : 200,
            "type" : "VEC3"
        },
        {
            "bufferView" : 18,
            "componentType" : 5126,
            "count" : 200,
            "type" : "VEC2"
        },
        {
            "bufferView" : 19,
            "componentType" : 5123,
            "count" : 300,
            "type" : "SCALAR"
        },
        {
            "bufferView" : 20,
            "componentType" : 5126,
            "count" : 105,
            "max" : [
                0.9587703943252563,
                -2.294175148010254,
                0.9587704539299011
            ],
            "min" : [
                -0.9587703943252563,
                -2.5,
                -0.9587704539299011
            ],
            "type" : "VEC3"
        },
        {
            "bufferView" : 21,
            "componentType" : 5126,
            "count" : 105,
            "type" : "VEC3"
        },
        {
            "bufferView" : 22,
            "componentType" : 5126,
            "count" : 105,
            "type" : "VEC2"
        },
        {
            "bufferView" : 23,
            "componentType" : 5123,
            "count" : 174,
            "type" : "SCALAR"
        },
        {
            "bufferView" : 24,
            "componentType" : 5126,
            "count" : 256,
            "max" : [
                1.6500368118286133,
                0.8333333134651184,
                0.7071067690849304
            ],
            "min" : [
                0.7009212374687195,
                -0.8333333730697632,
                -0.7071067690849304
            ],
            "type" : "VEC3"
        },
        {
            "bufferView" : 25,
            "componentType" : 5126,
            "count" : 256,
            "type" : "VEC3"
        },
        {
            "bufferView" : 26,
            "componentType" : 5126,
            "count" : 256,
            "type" : "VEC2"
        },
        {
            "bufferView" : 27,
            "componentType" : 5123,
            "count" : 384,
            "type" : "SCALAR"
        },
        {
            "bufferView" : 28,
            "componentType" : 5126,
            "count" : 32,
            "max" : [
                1.5464261770248413,
                0.7314238548278809,
                0.6438680291175842
            ],
            "min" : [
                0.7009212374687195,
                -0.732646644115448,
                -0.6620089411735535
            ],
            "type" : "VEC3"
        },
        {
            "bufferView" : 29,
            "componentType" : 5126,
            "count" : 32,
            "type" : "VEC3"
        },
        {
            "bufferView" : 30,
            "componentType" : 5126,
            "count" : 32,
            "type" : "VEC2"
        },
        {
            "bufferView" : 31,
            "componentType" : 5123,
            "count" : 48,
            "type" : "SCALAR"
        },
        {
            "bufferView" : 32,
            "componentType" : 5126,
            "count" : 251,
            "max" : [
                10.416666666666666
            ],
            "min" : [
                0
            ],
            "type" : "SCALAR"
        },
        {
            "bufferView" : 33,
            "componentType" : 5126,
            "count" : 251,
            "type" : "VEC3"
        },
        {
            "bufferView" : 34,
            "componentType" : 5126,
            "count" : 251,
            "type" : "VEC4"
        },
        {
            "bufferView" : 35,
            "componentType" : 5126,
            "count" : 251,
            "type" : "VEC4"
        }
    ],
    "bufferViews" : [
        {
            "buffer" : 0,
            "byteLength" : 3408,
            "byteOffset" : 0
        },
        {
            "buffer" : 0,
            "byteLength" : 3408,
            "byteOffset" : 3408
        },
        {
            "buffer" : 0,
            "byteLength" : 2272,
            "byteOffset" : 6816
        },
        {
            "buffer" : 0,
            "byteLength" : 1056,
            "byteOffset" : 9088
        },
        {
            "buffer" : 0,
            "byteLength" : 720,
            "byteOffset" : 10144
        },
        {
            "buffer" : 0,
            "byteLength" : 720,
            "byteOffset" : 10864
        },
        {
            "buffer" : 0,
            "byteLength" : 480,
            "byteOffset" : 11584
        },
        {
            "buffer" : 0,
            "byteLength" : 180,
            "byteOffset" : 12064
        },
        {
            "buffer" : 0,
            "byteLength" : 864,
            "byteOffset" : 12244
        },
        {
            "buffer" : 0,
            "byteLength" : 864,
            "byteOffset" : 13108
        },
        {
            "buffer" : 0,
            "byteLength" : 576,
            "byteOffset" : 13972
        },
        {
            "buffer" : 0,
            "byteLength" : 228,
            "byteOffset" : 14548
        },
        {
            "buffer" : 0,
            "byteLength" : 7296,
            "byteOffset" : 14776
        },
        {
            "buffer" : 0,
            "byteLength" : 7296,
            "byteOffset" : 22072
        },
        {
            "buffer" : 0,
            "byteLength" : 4864,
            "byteOffset" : 29368
        },
        {
            "buffer" : 0,
            "byteLength" : 1908,
            "byteOffset" : 34232
        },
        {
            "buffer" : 0,
            "byteLength" : 2400,
            "byteOffset" : 36140
        },
        {
            "buffer" : 0,
            "byteLength" : 2400,
            "byteOffset" : 38540
        },
        {
            "buffer" : 0,
            "byteLength" : 1600,
            "byteOffset" : 40940
        },
        {
            "buffer" : 0,
            "byteLength" : 600,
            "byteOffset" : 42540
        },
        {
            "buffer" : 0,
            "byteLength" : 1260,
            "byteOffset" : 43140
        },
        {
            "buffer" : 0,
            "byteLength" : 1260,
            "byteOffset" : 44400
        },
        {
            "buffer" : 0,
            "byteLength" : 840,
            "byteOffset" : 45660
        },
        {
            "buffer" : 0,
            "byteLength" : 348,
            "byteOffset" : 46500
        },
        {
            "buffer" : 0,
            "byteLength" : 3072,
            "byteOffset" : 46848
        },
        {
            "buffer" : 0,
            "byteLength" : 3072,
            "byteOffset" : 49920
        },
        {
            "buffer" : 0,
            "byteLength" : 2048,
            "byteOffset" : 52992
        },
        {
            "buffer" : 0,
            "byteLength" : 768,
            "byteOffset" : 55040
        },
        {
            "buffer" : 0,
            "byteLength" : 384,
            "byteOffset" : 55808
        },
        {
            "buffer" : 0,
            "byteLength" : 384,
            "byteOffset" : 56192
        },
        {
            "buffer" : 0,
            "byteLength" : 256,
            "byteOffset" : 56576
        },
        {
            "buffer" : 0,
            "byteLength" : 96,
            "byteOffset" : 56832
        },
        {
            "buffer" : 0,
            "byteLength" : 1004,
            "byteOffset" : 56928
        },
        {
            "buffer" : 0,
            "byteLength" : 3012,
            "byteOffset" : 57932
        },
        {
            "buffer" : 0,
            "byteLength" : 4016,
            "byteOffset" : 60944
        },
        {
            "buffer" : 0,
            "byteLength" : 4016,
            "byteOffset" : 64960
        }
    ],
    "buffers" : [
        {
            "byteLength" : 68976,
            "uri" : "plane2.bin"
        }
    ]
}
