# Rhino

mtllib testObj.mtl
usemtl African teak polished
v -0.83818846940994263 0 11.322848320007324
v -0.83818846940994263 16.063365936279297 11.322848320007324
v 11.546724319458008 0 11.322848320007324
v 11.546724319458008 16.063365936279297 11.322848320007324
v 11.546724319458008 0 11.322848320007324
v 11.546724319458008 16.063365936279297 11.322848320007324
v 11.546724319458008 0 1.2694528102874756
v 11.546724319458008 16.063365936279297 1.2694528102874756
v 11.546724319458008 0 1.2694528102874756
v 11.546724319458008 16.063365936279297 1.2694528102874756
v -0.83818846940994263 16.063365936279297 1.2694528102874756
v 6.4654951095581055 0 1.2694528102874756
v 6.4654951095581055 8.6635723114013672 1.2694528102874756
v -0.83818846940994263 8.6635723114013672 1.2694528102874756
v -0.83818846940994263 16.063365936279297 1.2694528102874756
v -0.83818846940994263 0 11.322848320007324
v -0.83818846940994263 16.063365936279297 11.322848320007324
v -0.83818846940994263 8.6635723114013672 5.6886281967163086
v -0.83818846940994263 0 5.6886281967163086
v -0.83818846940994263 8.6635723114013672 1.2694528102874756
v -0.83818846940994263 16.063365936279297 11.322848320007324
v -0.83818846940994263 16.063365936279297 1.2694528102874756
v 11.546724319458008 16.063365936279297 11.322848320007324
v 11.546724319458008 16.063365936279297 1.2694528102874756
v 6.4654951095581055 0 -4.7295913696289063
v 6.4654951095581055 8.6635723114013672 -4.7295913696289063
v -7.6579089164733887 0 -4.7295913696289063
v -7.6579089164733887 8.6635723114013672 -4.7295913696289063
v -7.6579089164733887 0 -4.7295913696289063
v -7.6579089164733887 8.6635723114013672 -4.7295913696289063
v -7.6579089164733887 0 5.6886281967163086
v -7.6579089164733887 8.6635723114013672 5.6886281967163086
v -0.83818846940994263 0 11.322848320007324
v -0.83818846940994263 0 1.2694528102874756
v 11.546724319458008 0 11.322848320007324
v 11.546724319458008 0 1.2694528102874756
v 6.4654951095581055 0 1.2694528102874756
v -0.83818846940994263 0 5.6886281967163086
v -7.6579089164733887 0 5.6886281967163086
v -7.6579089164733887 8.6635723114013672 5.6886281967163086
v -0.83818846940994263 0 5.6886281967163086
v -0.83818846940994263 8.6635723114013672 5.6886281967163086
v 6.4654951095581055 0 1.2694528102874756
v 6.4654951095581055 8.6635723114013672 1.2694528102874756
v 6.4654951095581055 0 -4.7295913696289063
v 6.4654951095581055 8.6635723114013672 -4.7295913696289063
v -7.6579089164733887 0 5.6886281967163086
v -7.6579089164733887 0 -4.7295913696289063
v 6.4654951095581055 0 -4.7295913696289063
v -0.83818846940994263 0 5.6886281967163086
v -0.83818846940994263 0 1.2694528102874756
v 6.4654951095581055 0 1.2694528102874756
v -7.6579089164733887 8.6635723114013672 5.6886281967163086
v -7.6579089164733887 8.6635723114013672 -4.7295913696289063
v 6.4654951095581055 8.6635723114013672 -4.7295913696289063
v -0.83818846940994263 8.6635723114013672 5.6886281967163086
v -0.83818846940994263 8.6635723114013672 1.2694528102874756
v 6.4654951095581055 8.6635723114013672 1.2694528102874756
vt 0.0099853515624999997 0.0044105151295661931
vt 0.0067518490552902219 0.0044105151295661931
vt 0.0099853515624999997 0.0069148510694503782
vt 0.0067518490552902219 0.0069148510694503782
vt 0.0032335025072097777 0.006517168879508972
vt 0 0.006517168879508972
vt 0.0032335025072097777 0.0085500520467758183
vt 0 0.0085500520467758183
vt 0.0099853515624999997 0
vt 0.0067518490552902219 0
vt 0.0067518490552902219 0.002504335939884186
vt 0.0099853515624999997 0.0010274682193994523
vt 0.0082414031028747552 0.0010274682193994523
vt 0.0082414031028747552 0.002504335939884186
vt 0 0.0042133074998855595
vt 0.0032335025072097777 0.0062461906671524049
vt 0 0.0062461906671524049
vt 0.0014895538985729218 0.0051069027185440064
vt 0.0032335025072097777 0.0051069027185440064
vt 0.0014895538985729218 0.0042133074998855595
vt 0 0.0021066537499427797
vt 0 0.0041395369172096252
vt 0.002504335939884186 0.0021066537499427797
vt 0.002504335939884186 0.0041395369172096252
vt 0.0067372006177902222 0.0059651565551757813
vt 0.0050000000000000001 0.0059651565551757813
vt 0.0067372006177902222 0.0088063818216323857
vt 0.0050000000000000001 0.0088063818216323857
vt 0.0049853515625000004 0.0059651565551757813
vt 0.0032481509447097778 0.0059651565551757813
vt 0.0049853515625000004 0.0080718100070953369
vt 0.0032481509447097778 0.0080718100070953369
vt 0 0
vt 0 0.0020328831672668459
vt 0.002504335939884186 0
vt 0.002504335939884186 0.0020328831672668459
vt 0.0014768677949905395 0.0020328831672668459
vt 0 0.0011392878741025925
vt 0.0048878440260887151 0.0042133074998855595
vt 0.0048878440260887151 0.0059505081176757816
vt 0.0062668502330780031 0.0042133074998855595
vt 0.0062668502330780031 0.0059505081176757816
vt 0.0032481509447097778 0.0042133074998855595
vt 0.0032481509447097778 0.0059505081176757816
vt 0.0044612094759941103 0.0042133074998855595
vt 0.0044612094759941103 0.0059505081176757816
vt 0.0031545215845108034 0.0021066537499427797
vt 0.0031545215845108034 0.0041986590623855589
vt 0.0060103958845138554 0.0041986590623855589
vt 0.0045335277915000919 0.0021066537499427797
vt 0.0045335277915000919 0.0029940354824066163
vt 0.0060103958845138554 0.0029940354824066163
vt 0.0031545215845108034 0
vt 0.0031545215845108034 0.0020920053124427796
vt 0.0060103958845138554 0.0020920053124427796
vt 0.0045335277915000919 0
vt 0.0045335277915000919 0.00088738173246383667
vt 0.0060103958845138554 0.00088738173246383667
vn 0 0 1
vn 0 0 1
vn 0 0 1
vn 0 0 1
vn 1 0 0
vn 1 0 0
vn 1 0 0
vn 1 0 0
vn 0 0 -1
vn 0 0 -1
vn 0 0 -1
vn 0 0 -1
vn 0 0 -1
vn 0 0 -1
vn -1 0 0
vn -1 0 0
vn -1 0 0
vn -1 0 0
vn -1 0 0
vn -1 0 0
vn 0 1 0
vn 0 1 0
vn 0 1 0
vn 0 1 0
vn 0 0 -1
vn 0 0 -1
vn 0 0 -1
vn 0 0 -1
vn -1 0 0
vn -1 0 0
vn -1 0 0
vn -1 0 0
vn 0 -1 0
vn 0 -1 0
vn 0 -1 0
vn 0 -1 0
vn 0 -1 0
vn 0 -1 0
vn 0 0 1
vn 0 0 1
vn 0 0 1
vn 0 0 1
vn 1 0 0
vn 1 0 0
vn 1 0 0
vn 1 0 0
vn 0 -1 0
vn 0 -1 0
vn 0 -1 0
vn 0 -1 0
vn 0 -1 0
vn 0 -1 0
vn 0 1 0
vn 0 1 0
vn 0 1 0
vn 0 1 0
vn 0 1 0
vn 0 1 0
f 2/2/2 1/1/1 3/3/3 4/4/4
f 6/6/6 5/5/5 7/7/7 8/8/8
f 10/10/10 9/9/9 12/12/12 13/13/13
f 11/11/11 13/13/13 14/14/14
f 10/10/10 13/13/13 11/11/11
f 18/18/18 15/15/15 20/20/20
f 16/16/16 17/17/17 18/18/18 19/19/19
f 15/15/15 18/18/18 17/17/17
f 22/22/22 21/21/21 23/23/23 24/24/24
f 26/26/26 25/25/25 27/27/27 28/28/28
f 30/30/30 29/29/29 31/31/31 32/32/32
f 35/35/35 33/33/33 38/38/38
f 37/37/37 38/38/38 34/34/34
f 36/36/36 35/35/35 37/37/37
f 38/38/38 37/37/37 35/35/35
f 40/40/40 39/39/39 41/41/41 42/42/42
f 44/44/44 43/43/43 45/45/45 46/46/46
f 51/51/51 47/47/47 48/48/48
f 50/50/50 47/47/47 51/51/51
f 49/49/49 52/52/52 51/51/51
f 48/48/48 49/49/49 51/51/51
f 57/57/57 54/54/54 53/53/53
f 56/56/56 57/57/57 53/53/53
f 55/55/55 57/57/57 58/58/58
f 54/54/54 57/57/57 55/55/55
